<svg width="49" height="47" xmlns="http://www.w3.org/2000/svg" xmlns:xlink="http://www.w3.org/1999/xlink" xml:space="preserve" overflow="hidden"><g transform="translate(-874 -136)"><path d="M20.5625 13.2188 28.3958 13.2188 28.3958 11.75C28.3958 10.6729 27.5146 9.79167 26.4375 9.79167L5.875 9.79167C4.79792 9.79167 3.91667 10.6729 3.91667 11.75L3.91667 24.9688C3.91667 26.0458 4.79792 26.9271 5.875 26.9271L8.8125 26.9271 8.8125 31.8229 13.7083 26.9271 16.6458 26.9271 16.6458 17.1354C16.6458 14.9813 18.4083 13.2188 20.5625 13.2188Z" fill="#002060" transform="matrix(1.04255 0 0 1 874 136)"/><path d="M41.125 15.1771 20.5625 15.1771C19.4854 15.1771 18.6042 16.0583 18.6042 17.1354L18.6042 30.3542C18.6042 31.4312 19.4854 32.3125 20.5625 32.3125L33.2917 32.3125 38.1875 37.2083 38.1875 32.3125 41.125 32.3125C42.2021 32.3125 43.0833 31.4312 43.0833 30.3542L43.0833 17.1354C43.0833 16.0583 42.2021 15.1771 41.125 15.1771Z" fill="#002060" transform="matrix(1.04255 0 0 1 874 136)"/></g></svg>