<svg width="49" height="47" xmlns="http://www.w3.org/2000/svg" xmlns:xlink="http://www.w3.org/1999/xlink" xml:space="preserve" overflow="hidden"><g transform="translate(-1064 -135)"><path d="M3.91667 8.32292 3.91667 38.6771 43.0833 38.6771 43.0833 8.32292ZM37.6979 11.2604C38.2387 11.2604 38.6771 11.6988 38.6771 12.2396 38.6771 12.7804 38.2387 13.2188 37.6979 13.2188 37.1571 13.2188 36.7188 12.7804 36.7188 12.2396 36.7188 11.6988 37.1571 11.2604 37.6979 11.2604ZM34.2708 11.2604C34.8116 11.2604 35.25 11.6988 35.25 12.2396 35.25 12.7804 34.8116 13.2188 34.2708 13.2188 33.73 13.2188 33.2917 12.7804 33.2917 12.2396 33.2917 11.6988 33.73 11.2604 34.2708 11.2604ZM30.8438 11.2604C31.3845 11.2604 31.8229 11.6988 31.8229 12.2396 31.8229 12.7804 31.3845 13.2188 30.8438 13.2188 30.303 13.2188 29.8646 12.7804 29.8646 12.2396 29.8646 11.6988 30.303 11.2604 30.8438 11.2604ZM40.1458 35.7396 6.85417 35.7396 6.85417 16.1562 40.1458 16.1562Z" fill="#002060" transform="matrix(1.04255 0 0 1 1064 135)"/><path d="M22.3984 22.7353C22.3984 24.6956 20.8093 26.2847 18.849 26.2847 16.8886 26.2847 15.2995 24.6956 15.2995 22.7353 15.2995 20.7749 16.8886 19.1858 18.849 19.1858 20.8093 19.1858 22.3984 20.7749 22.3984 22.7353Z" fill="#002060" transform="matrix(1.04255 0 0 1 1064 135)"/><path d="M25.9479 34.2708 25.9479 30.7214C25.9363 30.1655 25.6757 29.6443 25.238 29.3016 24.2089 28.5135 23.032 27.9401 21.7772 27.6154 20.8281 27.3249 19.8415 27.1754 18.849 27.1719 17.8575 27.1889 16.8728 27.338 15.9208 27.6154 14.68 27.9775 13.5098 28.5477 12.4599 29.3016 12.0222 29.6443 11.7616 30.1655 11.75 30.7214L11.75 34.2708Z" fill="#002060" transform="matrix(1.04255 0 0 1 1064 135)"/><path d="M25.4828 18.6678 34.7359 18.6678C35.0215 18.6694 35.2516 18.9022 35.25 19.1878 35.25 19.1878 35.25 19.1878 35.25 19.1878L35.25 25.4383C35.2516 25.7238 35.0215 25.9566 34.7359 25.9582 34.7359 25.9582 34.7359 25.9582 34.7359 25.9582L29.0813 25.9582 27.025 28.0419 27.025 25.9582 25.4828 25.9582C25.1973 25.9566 24.9671 25.7238 24.9688 25.4383 24.9688 25.4383 24.9688 25.4383 24.9688 25.4383L24.9688 19.1878C24.9671 18.9022 25.1973 18.6694 25.4828 18.6678 25.4828 18.6678 25.4828 18.6678 25.4828 18.6678Z" fill="#002060" transform="matrix(1.04255 0 0 1 1064 135)"/></g></svg>