<svg width="49" height="47" xmlns="http://www.w3.org/2000/svg" xmlns:xlink="http://www.w3.org/1999/xlink" xml:space="preserve" overflow="hidden"><g transform="translate(-682 -135)"><path d="M37.6 31.1375C35.4458 29.375 32.7042 28.2 29.9625 27.4167 28.0042 26.8292 25.85 26.4375 23.5 26.4375 21.3458 26.4375 19.1917 26.8292 17.0375 27.4167 14.2958 28.2 11.5542 29.5708 9.4 31.1375 8.42083 31.9208 7.83333 33.0958 7.83333 34.2708L7.83333 42.1042 39.1667 42.1042 39.1667 34.2708C39.1667 33.0958 38.5792 31.9208 37.6 31.1375Z" fill="#002060" transform="matrix(1.04255 0 0 1 682 135)"/><path d="M15.8625 9.9875C16.1562 9.9875 16.401 9.88958 16.5479 9.69375L16.5479 9.69375C18.3594 7.93125 20.8073 6.85417 23.5 6.85417 28.8854 6.85417 33.2917 11.2604 33.2917 16.6458L33.2917 18.8979 27.6615 20.7583C27.4167 20.6604 27.1719 20.5625 26.9271 20.5625 26.0948 20.5625 25.4583 21.199 25.4583 22.0312 25.4583 22.8635 26.0948 23.5 26.9271 23.5 27.5146 23.5 28.0531 23.1573 28.2979 22.6188L36.0823 20.024C36.474 19.8771 36.7677 19.5344 36.7677 19.0938L36.7677 14.6875C36.7677 14.149 36.3271 13.7083 35.7885 13.7083L34.9073 13.7083C33.5854 8.66563 28.9833 4.89583 23.5 4.89583 20.3177 4.89583 17.4292 6.16875 15.275 8.225 15.0302 8.42083 14.8833 8.66563 14.8833 9.00833 14.8833 9.54688 15.324 9.9875 15.8625 9.9875Z" fill="#002060" transform="matrix(1.04255 0 0 1 682 135)"/><path d="M31.2844 17.4781C31.3333 17.1844 31.3333 16.9396 31.3333 16.6458 31.3333 12.3375 27.8083 8.8125 23.5 8.8125 19.1917 8.8125 15.6667 12.3375 15.6667 16.6458 15.6667 20.9542 19.1917 24.4792 23.5 24.4792 23.6469 24.4792 23.8427 24.4792 23.9896 24.4302L23.9896 22.0312 23.9896 22.0312C23.9896 21.5906 24.0875 21.15 24.2833 20.7094 24.626 20.024 25.2135 19.4854 25.9969 19.2406L31.2844 17.4781Z" fill="#002060" transform="matrix(1.04255 0 0 1 682 135)"/></g></svg>